<?xml version="1.0" encoding="UTF-8"?>
<svg width="127px" height="127px" viewBox="0 0 127 127" version="1.1" xmlns="http://www.w3.org/2000/svg" xmlns:xlink="http://www.w3.org/1999/xlink">
    <!-- Generator: Sketch 47.1 (45422) - http://www.bohemiancoding.com/sketch -->
    <title>Icon - Check</title>
    <desc>Created with Sketch.</desc>
    <defs>
        <polygon id="path-1" points="47.8225 0.932 0 0.932 0 48.7528 47.8225 48.7528 47.8225 0.932"></polygon>
    </defs>
    <g id="Page-1" stroke="none" stroke-width="1" fill="none" fill-rule="evenodd">
        <g id="Homepage---New" transform="translate(-657.000000, -2577.000000)">
            <g id="Section---Callouts" transform="translate(0.000000, 2478.000000)">
                <g id="Content---Simplifying-Processes" transform="translate(555.000000, 100.000000)">
                    <g id="Icon---Check" transform="translate(103.000000, 0.000000)">
                        <circle id="Oval-4" stroke="#EDF1F2" stroke-width="2" fill="#FFFFFF" cx="62.5" cy="62.5" r="62.5"></circle>
                        <g transform="translate(34.000000, 34.000000)">
                            <path d="M38.2575127,20.4328903 C37.4061136,19.7489329 36.1669095,19.8908863 35.4907116,20.7495556 L24.9609221,34.0941694 L19.4912978,27.3647833 C18.8003357,26.5170335 17.5611317,26.3929484 16.7205596,27.0888179 C15.8799875,27.7836948 15.7569529,29.0344731 16.4459465,29.8832156 L23.265998,38.2733573 C23.6557715,38.7528224 24.2197619,39 24.789658,39 C25.2286453,39 25.6705854,38.8530832 26.0367362,38.5503154 C26.046579,38.542374 26.0524847,38.5324471 26.0623274,38.5245057 C26.4196198,38.4093547 26.7523052,38.2008916 27.00428,37.8822409 L38.5714969,23.2233172 C39.2486791,22.364648 39.1079276,21.115855 38.2575127,20.4328903" id="Fill-1" fill="#00C9FF"></path>
                            <path d="M47.7736654,9.05220774 C47.7535914,9.03212784 47.7305062,9.01907591 47.7104322,9 C48.4361081,9.78813612 48.42306,11.0120061 47.6582398,11.7760464 C46.8954269,12.5410906 45.6699078,12.5541425 44.8830061,11.8282541 C44.9020764,11.848334 44.9151245,11.8714259 44.9351985,11.8915058 C54.320808,21.2798636 54.320808,36.5566525 44.9351985,45.9450104 C35.5485854,55.3333682 20.2762687,55.3323642 10.8906593,45.9450104 C10.871589,45.9259344 10.8495076,45.9128825 10.8294335,45.8948106 C11.5541058,46.6819427 11.5400539,47.9058127 10.7762374,48.668849 C10.3847939,49.061411 9.87089894,49.2571901 9.35700395,49.2571901 C8.86920519,49.2571901 8.38341384,49.074463 8,48.7200527 C8.01907032,48.7411366 8.03211844,48.7642285 8.05219246,48.7843084 C13.5273822,54.2621055 20.7199046,57 27.9124271,57 C35.1049495,57 42.2984756,54.2621055 47.7736654,48.7843084 C53.0792297,43.4781945 56,36.4231212 56,28.9182581 C56,21.414399 53.0792297,14.3583217 47.7736654,9.05220774" id="Fill-3" fill="#00C9FF"></path>
                            <g id="Group-7">
                                <mask id="mask-2" fill="white">
                                    <use xlink:href="#path-1"></use>
                                </mask>
                                <g id="Clip-6"></g>
                                <path d="M8.3105,45.9888 C9.0715,45.2268 10.2925,45.2138 11.0775,45.9388 C11.0575,45.9178 11.0445,45.8938 11.0245,45.8738 C6.4945,41.3438 3.9995,35.3218 3.9995,28.9148 C3.9995,22.5098 6.4945,16.4868 11.0245,11.9558 C20.3755,2.6058 35.5905,2.6058 44.9425,11.9558 C44.9615,11.9758 44.9855,11.9888 45.0055,12.0078 C44.2825,11.2238 44.2955,10.0038 45.0575,9.2428 C45.8175,8.4808 47.0385,8.4678 47.8225,9.1908 C47.8035,9.1708 47.7905,9.1478 47.7705,9.1278 C42.4855,3.8428 35.4575,0.9318 27.9835,0.9318 C20.5085,0.9318 13.4815,3.8428 8.1965,9.1278 C2.9105,14.4128 -0.0005,21.4408 -0.0005,28.9148 C-0.0005,36.3898 2.9105,43.4168 8.1965,48.7018 C8.2155,48.7218 8.2385,48.7338 8.2575,48.7528 C7.5355,47.9678 7.5495,46.7498 8.3105,45.9888" id="Fill-5" fill="#FF4F00" mask="url(#mask-2)"></path>
                            </g>
                            <path d="M11.3990142,48.3961888 C12.1836141,47.6120587 12.1980483,46.3570382 11.4536578,45.5481785 C10.6443135,44.8021729 9.38544809,44.8155681 8.60084811,45.6007287 C7.81624813,46.3838285 7.80181396,47.6398793 8.5472355,48.4477086 C8.94108201,48.8124682 9.43906071,49 9.94116346,49 C10.4690415,49 10.9969195,48.7990731 11.3990142,48.3961888" id="Fill-8" fill="#003A00"></path>
                            <path d="M44.6012881,9.6012881 C43.815576,10.3859691 43.8021715,11.6439333 44.5476699,12.4523301 C45.3560667,13.1978285 46.615062,13.184424 47.3987119,12.3987119 C48.184424,11.6140309 48.1978285,10.3570978 47.4523301,9.54766995 C46.6439333,8.80217145 45.3859691,8.81557599 44.6012881,9.6012881" id="Fill-10" fill="#003A00"></path>
                        </g>
                    </g>
                </g>
            </g>
        </g>
    </g>
</svg>