<?xml version="1.0" encoding="UTF-8"?>
<svg width="1220px" height="410px" viewBox="0 0 1220 410" version="1.1" xmlns="http://www.w3.org/2000/svg" xmlns:xlink="http://www.w3.org/1999/xlink">
    <!-- Generator: Sketch 47.1 (45422) - http://www.bohemiancoding.com/sketch -->
    <title>bg</title>
    <desc>Created with Sketch.</desc>
    <defs>
        <polygon id="path-1" points="78.1222828 0 1.13686838e-13 0 0 41.4612 78.1222828 41.4612 78.1222828 0"></polygon>
    </defs>
    <g id="Page-1" stroke="none" stroke-width="1" fill="none" fill-rule="evenodd" opacity="0.1">
        <g id="Homepage---New" transform="translate(-100.000000, -66.000000)">
            <g id="Header" transform="translate(81.000000, 40.000000)">
                <g id="bg" transform="translate(22.000000, 26.000000)">
                    <path d="M74.6255,234.7005 C56.9475,252.3785 28.2855,252.3785 10.6065,234.7005 C-3.5355,220.5575 -3.5355,197.6285 10.6065,183.4855 C21.9205,172.1715 40.2645,172.1715 51.5785,183.4855 C60.6305,192.5365 60.6305,207.2115 51.5785,216.2635 C44.3375,223.5045 32.5975,223.5045 25.3565,216.2635 C19.5635,210.4705 19.5635,201.0785 25.3565,195.2855 C29.9905,190.6515 37.5045,190.6515 42.1385,195.2855 C45.8465,198.9925 45.8465,205.0035 42.1385,208.7115" id="Stroke-3" stroke="#3C5979" stroke-width="6" stroke-linecap="round" stroke-linejoin="round"></path>
                    <path d="M452.153206,71.1429519 L444.869206,51.9429519 L464.070206,44.6589519 L471.353206,63.8589519 L452.153206,71.1429519 Z M468.616206,39.7249519 C468.334206,38.9819519 467.768206,38.3799519 467.043206,38.0539519 C466.315206,37.7259519 465.492206,37.7019519 464.747206,37.9849519 L439.935206,47.3969519 C439.192206,47.6789519 438.590206,48.2449519 438.264206,48.9699519 C437.937206,49.6959519 437.913206,50.5219519 438.195206,51.2659519 L447.607206,76.0769519 C448.061206,77.2749519 449.202206,78.0129519 450.413206,78.0129519 C450.766206,78.0129519 451.126206,77.9499519 451.476206,77.8169519 L476.287206,68.4049519 C477.836206,67.8179519 478.615206,66.0849519 478.027206,64.5359519 L468.616206,39.7249519 Z" id="Fill-6" fill="#3C5979"></path>
                    <path d="M227.236247,303.774181 C226.577247,303.172181 225.683247,302.901181 224.802247,303.018181 C223.919247,303.140181 223.135247,303.649181 222.666247,304.407181 L218.834247,310.575181 L216.728247,313.963181 L209.971247,306.217181 L205.260247,300.817181 C204.172247,299.567181 202.275247,299.440181 201.028247,300.528181 C199.779247,301.617181 199.650247,303.512181 200.739247,304.760181 L214.875247,320.965181 C215.500247,321.683181 216.423247,322.065181 217.378247,321.984181 C218.326247,321.907181 219.181247,321.385181 219.683247,320.577181 L224.244247,313.235181 L225.857247,310.639181 L233.909247,317.987181 L241.537247,324.948181 C242.112247,325.473181 242.837247,325.732181 243.558247,325.732181 C244.373247,325.732181 245.183247,325.403181 245.775247,324.754181 C246.892247,323.531181 246.805247,321.633181 245.582247,320.516181 L227.236247,303.774181 Z" id="Fill-27" fill="#3C5979"></path>
                    <path d="M102.1171,403.5117 L92.3081,402.5527 L93.2671,392.7427 L103.0761,393.7017 L102.1171,403.5117 Z M106.6451,388.0237 L90.8651,386.4807 C90.0731,386.3997 89.2821,386.6437 88.6681,387.1487 C88.0541,387.6537 87.6651,388.3817 87.5881,389.1737 L86.0461,404.9547 C85.8851,406.6047 87.0911,408.0717 88.7391,408.2327 L104.5191,409.7747 C104.6191,409.7837 104.7181,409.7887 104.8151,409.7887 C106.3411,409.7887 107.6451,408.6307 107.7971,407.0807 L109.3391,391.3007 C109.5001,389.6517 108.2941,388.1847 106.6451,388.0237 L106.6451,388.0237 Z" id="Fill-21" fill="#3C5979"></path>
                    <path d="M884.133,21.054 C880.2,21.054 877,17.855 877,13.922 C877,9.99 880.2,6.789 884.133,6.789 C888.066,6.789 891.266,9.99 891.266,13.922 C891.266,17.855 888.066,21.054 884.133,21.054 M884.133,0.789 C876.892,0.789 871,6.681 871,13.922 C871,21.163 876.892,27.054 884.133,27.054 C891.374,27.054 897.266,21.163 897.266,13.922 C897.266,6.681 891.374,0.789 884.133,0.789" id="Fill-17" fill="#3C5979"></path>
                    <g id="Group-14" transform="translate(1138.000000, 361.789000)">
                        <mask id="mask-2" fill="white">
                            <use xlink:href="#path-1"></use>
                        </mask>
                        <g id="Clip-13"></g>
                        <path d="M77.0940353,0.73877613 C75.8480353,-0.34822387 73.9510353,-0.22222387 72.8620353,1.02777613 L68.1520353,6.42677613 L50.3940353,26.7827761 L44.8620353,17.8787761 L38.1700353,7.10877613 C37.7000353,6.35077613 36.9170353,5.84277613 36.0330353,5.71977613 C35.1560353,5.60377613 34.2590353,5.87477613 33.6000353,6.47577613 L0.978035342,36.2457761 C-0.245964658,37.3617761 -0.332964658,39.2597761 0.784035342,40.4837761 C1.37603534,41.1327761 2.18703534,41.4617761 3.00103534,41.4617761 C3.72303534,41.4617761 4.44703534,41.2027761 5.02303534,40.6767761 L12.6500353,33.7167761 L34.9790353,13.3407761 L39.4510353,20.5387761 L47.4390353,33.3957761 C47.9410353,34.2047761 48.7960353,34.7257761 49.7440353,34.8027761 C50.7050353,34.8847761 51.6220353,34.5027761 52.2470353,33.7847761 L77.3830353,4.97077613 C78.4720353,3.72277613 78.3430353,1.82777613 77.0940353,0.73877613" id="Fill-12" fill="#3C5979" mask="url(#mask-2)"></path>
                    </g>
                    <path d="M1067.71542,266.503559 L1047.27742,264.505559 L1049.27542,244.066559 L1069.71342,246.065559 L1067.71542,266.503559 Z M1073.28242,240.385559 L1046.87242,237.804559 C1045.20942,237.636559 1043.75542,238.848559 1043.59542,240.497559 L1041.01442,266.907559 C1040.85342,268.557559 1042.05942,270.024559 1043.70742,270.185559 L1070.11742,272.766559 C1070.21742,272.775559 1070.31642,272.780559 1070.41342,272.780559 C1071.93942,272.780559 1073.24342,271.622559 1073.39542,270.072559 L1075.97642,243.662559 C1076.13742,242.013559 1074.93142,240.546559 1073.28242,240.385559 L1073.28242,240.385559 Z" id="Fill-2" fill="#3C5979"></path>
                </g>
            </g>
        </g>
    </g>
</svg>