<?xml version="1.0" encoding="UTF-8"?>
<svg width="141px" height="27px" viewBox="0 0 141 27" version="1.1" xmlns="http://www.w3.org/2000/svg" xmlns:xlink="http://www.w3.org/1999/xlink">
    <!-- Generator: Sketch 47.1 (45422) - http://www.bohemiancoding.com/sketch -->
    <title>Homepage - New</title>
    <desc>Created with Sketch.</desc>
    <defs></defs>
    <g id="Page-1" stroke="none" stroke-width="1" fill="none" fill-rule="evenodd">
        <g id="Homepage---New" transform="translate(-82.000000, -44.000000)">
            <g id="Header" transform="translate(82.000000, 40.000000)">
                <g id="BG-Texture" transform="translate(21.000000, 26.000000)"></g>
                <g id="Header-Bar">
                    <g id="Logo---GoodCall" transform="translate(0.000000, 4.000000)">
                        <path d="M17.9621239,25.4294452 C16.4219076,25.8095238 14.7441101,26 12.9274336,26 C11.0441298,26 9.31052114,25.6976846 7.72660767,25.0934906 C6.1426942,24.4897335 4.77986234,23.6395806 3.63941003,22.5434688 C2.49765978,21.4477938 1.60641101,20.133246 0.963933137,18.6002621 C0.321022616,17.068152 0,15.3621669 0,13.4827436 C0,11.5819135 0.326647001,9.85889035 0.980806293,8.31498471 C1.63366765,6.77151595 2.53703048,5.45740498 3.68916421,4.37221494 C4.84086529,3.28746177 6.19244838,2.45434688 7.74348083,1.87243338 C9.29364798,1.29095675 10.967119,1 12.7612979,1 C14.6225369,1 16.3505211,1.28484054 17.9456834,1.85539537 C19.5408456,2.4259502 20.8370501,3.19266055 21.8338643,4.15421581 L18.2446411,8.28178244 C17.6908555,7.63302752 16.9596853,7.10222805 16.0511308,6.68807339 C15.1425762,6.27391874 14.1124484,6.06727829 12.9607473,6.06727829 C11.9639331,6.06727829 11.0441298,6.25163827 10.2026352,6.62035824 C9.36027532,6.98995194 8.62910521,7.50458716 8.00912488,8.163827 C7.3887119,8.82437746 6.90674533,9.60725208 6.56365782,10.5128877 C6.21970501,11.4193971 6.04837758,12.4089122 6.04837758,13.4827436 C6.04837758,14.5792923 6.2032645,15.5862822 6.51390364,16.5028397 C6.82367748,17.4207077 7.28314651,18.2096986 7.89274336,18.8689384 C8.50190757,19.529052 9.25514258,20.0436872 10.152881,20.412844 C11.0497542,20.781564 12.0742576,20.9663609 13.226824,20.9663609 C13.8913668,20.9663609 14.5225959,20.9161206 15.120944,20.8152031 C15.7188594,20.7147226 16.272645,20.5526431 16.7823009,20.3285277 L16.7823009,16 L12.2962045,16 L12.2962045,11.36872 L22,11.36872 L22,23.9528178 C20.8474336,24.5570118 19.5019076,25.0493665 17.9621239,25.4294452 L17.9621239,25.4294452 Z" id="Fill-1" fill="#221E1F"></path>
                        <path d="M34.8568402,16.4361091 C34.8568402,15.9228936 34.7699696,15.4205355 34.5966523,14.928617 C34.4224875,14.4366986 34.1733173,14.00366 33.8478706,13.6290838 C33.5224239,13.2553427 33.1207006,12.9505036 32.6435483,12.714984 C32.1659722,12.4798821 31.6125433,12.3621223 30.9836853,12.3621223 C30.3539798,12.3621223 29.8005509,12.4798821 29.3233985,12.714984 C28.8458224,12.9505036 28.449608,13.2553427 28.1356028,13.6290838 C27.8207501,14.00366 27.5821739,14.4366986 27.4194505,14.928617 C27.2567272,15.4205355 27.1753655,15.9228936 27.1753655,16.4361091 C27.1753655,16.9493245 27.2567272,17.4521002 27.4194505,17.9431835 C27.5821739,18.4355195 27.8262589,18.8794154 28.1517056,19.274871 C28.4771523,19.6703267 28.8784519,19.9860231 29.356028,20.2207074 C29.8331803,20.4566446 30.3866092,20.5735691 31.0163147,20.5735691 C31.6451727,20.5735691 32.1986016,20.4566446 32.6761777,20.2207074 C33.1529063,19.9860231 33.5550533,19.6703267 33.8805,19.274871 C34.2059467,18.8794154 34.4500318,18.4355195 34.6127551,17.9431835 C34.7754785,17.4521002 34.8568402,16.9493245 34.8568402,16.4361091 M40,16.4361091 C40,17.7406534 39.7605763,18.9215917 39.283424,19.9801769 C38.8058479,21.038762 38.1549544,21.9369934 37.3307437,22.6744535 C36.5056854,23.4123311 35.5513807,23.984844 34.4665584,24.3907394 C33.3808885,24.7966347 32.2202133,25 30.9836853,25 C29.7679215,25 28.6127551,24.7966347 27.516915,24.3907394 C26.4210749,23.984844 25.4663465,23.4123311 24.6527297,22.6744535 C23.8391129,21.9369934 23.1928809,21.038762 22.7161523,19.9801769 C22.2385762,18.9215917 22,17.7406534 22,16.4361091 C22,15.1319823 22.2385762,13.9556374 22.7161523,12.907492 C23.1928809,11.8601818 23.8391129,10.9723901 24.6527297,10.2453697 C25.4663465,9.51876689 26.4210749,8.96253992 27.516915,8.57752395 C28.6127551,8.19250798 29.7679215,8 30.9836853,8 C32.2202133,8 33.3808885,8.19250798 34.4665584,8.57752395 C35.5513807,8.96253992 36.5056854,9.51876689 37.3307437,10.2453697 C38.1549544,10.9723901 38.8058479,11.8601818 39.283424,12.907492 C39.7605763,13.9556374 40,15.1319823 40,16.4361091" id="Fill-3" fill="#221E1F"></path>
                        <path d="M52.8568402,16.4361091 C52.8568402,15.9228936 52.7699696,15.4205355 52.5966523,14.928617 C52.4229112,14.4366986 52.1733173,14.00366 51.8478706,13.6290838 C51.5224239,13.2553427 51.1202769,12.9505036 50.6435483,12.714984 C50.1659722,12.4798821 49.612967,12.3621223 48.9832615,12.3621223 C48.3539798,12.3621223 47.8005509,12.4798821 47.3233985,12.714984 C46.8458224,12.9505036 46.4500318,13.2553427 46.1356028,13.6290838 C45.8207501,14.00366 45.5821739,14.4366986 45.4194505,14.928617 C45.2563034,15.4205355 45.1753655,15.9228936 45.1753655,16.4361091 C45.1753655,16.9493245 45.2563034,17.4521002 45.4194505,17.9431835 C45.5821739,18.4355195 45.8262589,18.8794154 46.1517056,19.274871 C46.4771523,19.6703267 46.8788756,19.9860231 47.3564517,20.2207074 C47.8331803,20.4566446 48.3861855,20.5735691 49.0163147,20.5735691 C49.6451727,20.5735691 50.1986016,20.4566446 50.6761777,20.2207074 C51.1529063,19.9860231 51.5550533,19.6703267 51.8805,19.274871 C52.2059467,18.8794154 52.4500318,18.4355195 52.6127551,17.9431835 C52.7759023,17.4521002 52.8568402,16.9493245 52.8568402,16.4361091 M58,16.4361091 C58,17.7406534 57.7605763,18.9215917 57.283424,19.9801769 C56.8058479,21.038762 56.1549544,21.9369934 55.3307437,22.6744535 C54.5061092,23.4123311 53.5513807,23.984844 52.4661346,24.3907394 C51.3813122,24.7966347 50.2202133,25 48.9832615,25 C47.7679215,25 46.6127551,24.7966347 45.5173388,24.3907394 C44.4210749,23.984844 43.4663465,23.4123311 42.6527297,22.6744535 C41.8391129,21.9369934 41.1933046,21.038762 40.7161523,19.9801769 C40.2385762,18.9215917 40,17.7406534 40,16.4361091 C40,15.1319823 40.2385762,13.9556374 40.7161523,12.907492 C41.1933046,11.8601818 41.8391129,10.9723901 42.6527297,10.2453697 C43.4663465,9.51876689 44.4210749,8.96253992 45.5173388,8.57752395 C46.6127551,8.19250798 47.7679215,8 48.9832615,8 C50.2202133,8 51.3813122,8.19250798 52.4661346,8.57752395 C53.5513807,8.96253992 54.5061092,9.51876689 55.3307437,10.2453697 C56.1549544,10.9723901 56.8058479,11.8601818 57.283424,12.907492 C57.7605763,13.9556374 58,15.1319823 58,16.4361091" id="Fill-5" fill="#221E1F"></path>
                        <path d="M71.8894696,16.4285473 C71.8894696,15.9090525 71.7966664,15.4005478 71.6127551,14.9026106 C71.4279963,14.405096 71.1678085,13.9608413 70.8317678,13.5711146 C70.4948796,13.1818105 70.0880712,12.8681692 69.6109189,12.629768 C69.1333428,12.3917895 68.5909316,12.2725889 67.9832615,12.2725889 C67.3539798,12.2725889 66.8005509,12.3917895 66.3233985,12.629768 C65.8458224,12.8681692 65.4445229,13.1767381 65.1190762,13.5550521 C64.7936295,13.9342114 64.5495445,14.3725484 64.3868211,14.8700629 C64.2240977,15.3684228 64.1427361,15.8765048 64.1427361,16.3964223 C64.1427361,16.9154944 64.2240977,17.4299168 64.3868211,17.9384215 C64.5495445,18.4469261 64.7936295,18.8962532 65.1190762,19.28598 C65.4445229,19.6757067 65.8458224,19.9897707 66.3233985,20.2273265 C66.8005509,20.4661504 67.3539798,20.5845056 67.9832615,20.5845056 C68.5909316,20.5845056 69.1333428,20.4661504 69.6109189,20.2273265 C70.0880712,19.9897707 70.4948796,19.6757067 70.8317678,19.28598 C71.1678085,18.8962532 71.4279963,18.4528439 71.6127551,17.954484 C71.7966664,17.4569694 71.8894696,16.9480421 71.8894696,16.4285473 L71.8894696,16.4285473 Z M72.0848224,24.5456006 L72.0848224,22.4350737 L72.0199873,22.4350737 C71.498764,23.2580651 70.7550674,23.8912654 69.7901688,24.3346747 C68.8244226,24.778084 67.7989265,25 66.7141041,25 C65.4983403,25 64.4135179,24.7620215 63.4587895,24.2860645 C62.504061,23.8101075 61.6955293,23.1769072 61.034042,22.3864635 C60.371707,21.5968653 59.8674341,20.6821487 59.5207995,19.6427364 C59.1733173,18.6037468 59,17.5220648 59,16.3964223 C59,15.2712025 59.1788262,14.1937475 59.5369023,13.1653253 C59.8949785,12.1377485 60.4043365,11.2335994 61.0666714,10.4545685 C61.7281588,9.67511497 62.5316053,9.05797714 63.4757398,8.60357771 C64.4194505,8.14917828 65.4771523,7.92176721 66.6488453,7.92176721 C67.8421499,7.92176721 68.8511194,8.14917828 69.6757539,8.60357771 C70.5008122,9.05797714 71.1406879,9.55633708 71.5966523,10.0969667 L71.6614874,10.0969667 L71.6614874,0 L77,0 L77,24.5456006 L72.0848224,24.5456006 Z" id="Fill-7" fill="#221E1F"></path>
                        <path d="M95.2866896,24.9446083 C93.8142849,25.6483482 92.1176646,26 90.1968287,26 C88.4468634,26 86.8298438,25.6989581 85.3470202,25.0955655 C83.863363,24.4921729 82.5780825,23.6374758 81.4899284,22.5319104 C80.4009407,21.4259088 79.5470043,20.1017609 78.928536,18.5603393 C78.3096509,17.0189176 78,15.3213033 78,13.4661873 C78,11.5678784 78.314652,9.84714054 78.9447895,8.30528263 C79.5740936,6.76386101 80.4438667,5.45149299 81.5536923,4.36774227 C82.6631011,3.28442785 83.9650519,2.45241793 85.459128,1.87127624 C86.9527873,1.29057085 88.5639723,1 90.2930997,1 C91.8930322,1 93.4671258,1.29624265 95.0145468,1.88785536 C96.5619679,2.48034066 97.8155748,3.3455088 98.7757844,4.48510497 L95.062474,8.37290798 C94.5502788,7.63513726 93.8780488,7.08802639 93.0457838,6.73070278 C92.2135188,6.37337917 91.3595824,6.19406293 90.4852249,6.19406293 C89.5245986,6.19406293 88.6444065,6.37861468 87.8442319,6.7472819 C87.0436405,7.11594911 86.3551569,7.62422994 85.7791978,8.2721244 C85.2032388,8.92001885 84.7548076,9.685276 84.4347377,10.5678958 C84.1142511,11.4505157 83.954633,12.4164674 83.954633,13.4661873 C83.954633,14.5385944 84.1142511,15.5219979 84.4347377,16.415525 C84.7548076,17.3094885 85.1974042,18.0747456 85.7629443,18.7112965 C86.3284844,19.3478473 87.0061323,19.8452209 87.795888,20.2025445 C88.5852269,20.5603044 89.4495823,20.738748 90.3889539,20.738748 C91.4771081,20.738748 92.4268987,20.5158025 93.2379091,20.0686026 C94.0485026,19.6218391 94.6994781,19.0411337 95.1908353,18.3256139 L99,22.0794751 C97.9964476,23.2853877 96.7590942,24.2408684 95.2866896,24.9446083" id="Fill-9" fill="#059AC0"></path>
                        <path d="M110.262985,17.5988169 L109.600247,17.5988169 C109.031657,17.5988169 108.457722,17.6257456 107.878854,17.679603 C107.299575,17.7334604 106.784021,17.836126 106.331369,17.9867584 C105.878717,18.1373908 105.505002,18.3582902 105.210635,18.649036 C104.915445,18.9402025 104.768672,19.3230948 104.768672,19.7964508 C104.768672,20.0981363 104.836508,20.357325 104.973825,20.571913 C105.110319,20.7877633 105.284226,20.9598545 105.494724,21.0894488 C105.70481,21.2186224 105.947376,21.3103482 106.221187,21.3637849 C106.494176,21.418063 106.75812,21.4449917 107.010552,21.4449917 C108.062628,21.4449917 108.868028,21.1491968 109.42634,20.5559241 C109.983829,19.9634928 110.262985,19.1611019 110.262985,18.1483306 L110.262985,17.5988169 Z M100.757709,10.7147489 C101.68398,9.80969235 102.76319,9.13100512 103.994518,8.67868723 C105.226257,8.22636933 106.484309,8 107.768672,8 C109.094559,8 110.215705,8.16704205 111.131287,8.50070539 C112.04728,8.83521026 112.789365,9.35190456 113.357955,10.0520506 C113.926134,10.7526174 114.341373,11.6357944 114.605317,12.7020023 C114.868439,13.768631 115,15.0347004 115,16.5002104 L115,24.6120585 L110.262985,24.6120585 L110.262985,22.8991412 L110.168425,22.8991412 C109.768398,23.5673094 109.162807,24.0844244 108.352885,24.4504864 C107.542141,24.8165483 106.663149,25 105.7155,25 C105.084007,25 104.431136,24.913744 103.75812,24.7416528 C103.08387,24.5691409 102.468001,24.2884934 101.910511,23.9013935 C101.3522,23.513452 100.894614,22.9959161 100.536933,22.3496275 C100.178841,21.7033389 100,20.9064178 100,19.9580229 C100,18.7946192 100.310402,17.8571641 100.931616,17.146499 C101.552419,16.4349925 102.352474,15.8858996 103.33178,15.4979581 C104.310264,15.1100166 105.400164,14.8516694 106.599836,14.7220751 C107.799918,14.5929015 108.968754,14.5281043 110.105112,14.5281043 L110.105112,14.2697572 C110.105112,13.4728362 109.831301,12.8858748 109.284089,12.5080316 C108.736467,12.1318714 108.062628,11.9429498 107.262985,11.9429498 C106.525833,11.9429498 105.815404,12.1041012 105.131698,12.4276663 C104.44717,12.7508106 103.862957,13.1383313 103.37906,13.59107 L100.757709,10.7147489 Z" id="Fill-11" fill="#059AC0"></path>
                        <polygon id="Fill-13" fill="#059AC0" points="117 25 122 25 122 -1.77635684e-15 117 -1.77635684e-15"></polygon>
                        <polygon id="Fill-15" fill="#059AC0" points="124 25 129 25 129 -1.77635684e-15 124 -1.77635684e-15"></polygon>
                        <path d="M133.654732,3.66500234 C133.670819,3.88032454 133.736861,4.0550788 133.853704,4.1892651 C134.076383,4.44016227 134.469247,4.56561086 135.031448,4.56561086 C135.282915,4.56561086 135.512368,4.53814948 135.719806,4.48385083 C136.12029,4.37712592 136.320109,4.18552036 136.320109,3.91090654 C136.320109,3.70369792 136.23544,3.55640506 136.066102,3.46902793 C135.894224,3.38289905 135.624977,3.30800437 135.258361,3.24434389 L134.582703,3.12825714 C134.141578,3.05273834 133.829997,2.96910594 133.646265,2.87735996 C133.329603,2.71883289 133.171273,2.48229053 133.171273,2.16773288 C133.171273,1.82696208 133.327063,1.54673116 133.637798,1.32828834 C133.94938,1.10984553 134.390505,1 134.960326,1 C135.48612,1 135.931479,1.09673896 136.298942,1.28834452 C136.665558,1.48057419 136.849289,1.78701826 136.849289,2.20892495 L136.193952,2.20892495 C136.160085,2.00608519 136.088963,1.85005461 135.97974,1.74145733 C135.775688,1.54361055 135.429392,1.4443751 134.941699,1.4443751 C134.547989,1.4443751 134.264348,1.5086597 134.09247,1.63535653 C133.919746,1.76330161 133.833383,1.91059448 133.833383,2.07973163 C133.833383,2.26572008 133.934986,2.40177875 134.139038,2.48728351 C134.271968,2.54283039 134.574236,2.61210797 135.044995,2.693868 L135.74436,2.81557185 C136.081343,2.87361523 136.341276,2.95412701 136.525008,3.05523483 C136.841669,3.23310969 137,3.49024809 137,3.82789827 C137,4.24793259 136.797641,4.54813543 136.392924,4.72850679 C135.989053,4.90950226 135.519988,5 134.984034,5 C134.360024,5 133.871484,4.87954439 133.519262,4.63863317 C133.165346,4.39959432 132.992621,4.07442659 133.000241,3.66500234 L133.654732,3.66500234 Z" id="Fill-18" fill="#231F20"></path>
                        <path d="M135,1 L135.809189,1 L137.0072,4.38193187 L138.196983,1 L139,1 L139,5 L138.460998,5 L138.460998,2.6389666 C138.460998,2.55734738 138.463055,2.42241237 138.466484,2.23350337 C138.470598,2.04459437 138.47197,1.84252098 138.47197,1.62596676 L137.282873,5 L136.723298,5 L135.521858,1.62596676 L135.521858,1.74905381 C135.521858,1.84712852 135.525287,1.99654435 135.530773,2.19664308 C135.536259,2.39740003 135.539002,2.5448412 135.539002,2.6389666 L135.539002,5 L135,5 L135,1 Z" id="Fill-19" fill="#231F20"></path>
                    </g>
                </g>
            </g>
        </g>
    </g>
</svg>